<svg xmlns="http://www.w3.org/2000/svg" version="1.1" xmlns:xlink="http://www.w3.org/1999/xlink" xmlns:svgjs="http://svgjs.dev/svgjs" viewBox="0 0 14.4509650313542 3.3213080083226116"><g transform="matrix(1,0,0,1,3.0221477434019093,0.6231958791613055)"><rect width="14.4509650313542" height="14.4509650313542" x="-3.0221477434019093" y="-6.188024390677099" fill="#343432"></rect><g><path d=" M 0.4887 1.22175 Q 0.37467 1.22175 0.28344600000000003 1.1932425 Q 0.192222 1.164735 0.109143 1.093059 Q 0.087966 1.07514 0.076563 1.0523339999999999 Q 0.06516 1.029528 0.06516 1.006722 Q 0.06516 0.969255 0.0920385 0.9407475 Q 0.118917 0.9122399999999999 0.159642 0.9122399999999999 Q 0.190593 0.9122399999999999 0.215028 0.931788 Q 0.27693 0.9822869999999999 0.3380175 1.008351 Q 0.399105 1.034415 0.4887 1.034415 Q 0.548973 1.034415 0.599472 1.0156815 Q 0.649971 0.996948 0.680922 0.9651824999999999 Q 0.711873 0.9334169999999999 0.711873 0.892692 Q 0.711873 0.843822 0.682551 0.8096129999999999 Q 0.6532290000000001 0.775404 0.592956 0.7517834999999999 Q 0.532683 0.7281629999999999 0.43983 0.715131 Q 0.351864 0.7020989999999999 0.285075 0.6752205 Q 0.218286 0.648342 0.1734885 0.6068025 Q 0.128691 0.565263 0.105885 0.5090625 Q 0.083079 0.452862 0.083079 0.382815 Q 0.083079 0.27693 0.1376505 0.20199600000000006 Q 0.192222 0.127062 0.285075 0.08796599999999999 Q 0.377928 0.04886999999999997 0.490329 0.04886999999999997 Q 0.596214 0.04886999999999997 0.6866235 0.08063549999999986 Q 0.777033 0.11240099999999997 0.834048 0.16127099999999994 Q 0.881289 0.19873799999999986 0.881289 0.24760799999999994 Q 0.881289 0.283446 0.853596 0.31276799999999993 Q 0.825903 0.34209 0.788436 0.34209 Q 0.764001 0.34209 0.744453 0.32742899999999997 Q 0.718389 0.304623 0.6744060000000001 0.2842604999999999 Q 0.630423 0.26389799999999997 0.581553 0.2500515 Q 0.532683 0.236205 0.490329 0.236205 Q 0.420282 0.236205 0.3722265 0.254124 Q 0.324171 0.2720429999999999 0.299736 0.302994 Q 0.275301 0.33394499999999994 0.275301 0.37466999999999995 Q 0.275301 0.4235399999999999 0.3038085 0.4553054999999999 Q 0.332316 0.4870709999999999 0.386073 0.5058045 Q 0.43983 0.524538 0.514764 0.539199 Q 0.612504 0.557118 0.6866235 0.581553 Q 0.7607430000000001 0.605988 0.809613 0.6442694999999999 Q 0.858483 0.682551 0.882918 0.7403805 Q 0.907353 0.79821 0.907353 0.881289 Q 0.907353 0.987174 0.848709 1.063737 Q 0.790065 1.1402999999999999 0.6947685 1.181025 Q 0.599472 1.22175 0.4887 1.22175 M 1.574892542285156 0.3176549999999999 Q 1.6921805422851561 0.3176549999999999 1.753268042285156 0.368154 Q 1.8143555422851563 0.41865299999999994 1.8371615422851562 0.5025465 Q 1.859967542285156 0.58644 1.859967542285156 0.689067 L 1.859967542285156 1.106091 Q 1.859967542285156 1.148445 1.832274542285156 1.1769525 Q 1.804581542285156 1.20546 1.762227542285156 1.20546 Q 1.719873542285156 1.20546 1.6921805422851561 1.1769525 Q 1.6644875422851562 1.148445 1.6644875422851562 1.106091 L 1.6644875422851562 0.689067 Q 1.6644875422851562 0.6353099999999999 1.6514555422851562 0.5921415 Q 1.638423542285156 0.5489729999999999 1.6042145422851561 0.522909 Q 1.570005542285156 0.496845 1.5064745422851562 0.496845 Q 1.444572542285156 0.496845 1.400589542285156 0.522909 Q 1.356606542285156 0.5489729999999999 1.3346150422851562 0.5921415 Q 1.3126235422851562 0.6353099999999999 1.3126235422851562 0.689067 L 1.3126235422851562 1.106091 Q 1.3126235422851562 1.148445 1.284930542285156 1.1769525 Q 1.257237542285156 1.20546 1.214883542285156 1.20546 Q 1.172529542285156 1.20546 1.144836542285156 1.1769525 Q 1.117143542285156 1.148445 1.117143542285156 1.106091 L 1.117143542285156 0.09936900000000004 Q 1.117143542285156 0.05701500000000004 1.144836542285156 0.028507499999999908 Q 1.172529542285156 0 1.214883542285156 0 Q 1.257237542285156 0 1.284930542285156 0.028507499999999908 Q 1.3126235422851562 0.05701500000000004 1.3126235422851562 0.09936900000000004 L 1.3126235422851562 0.503361 L 1.2881885422851562 0.498474 Q 1.302849542285156 0.470781 1.3289135422851561 0.4390155 Q 1.3549775422851562 0.40725 1.3924445422851561 0.3795569999999999 Q 1.429911542285156 0.35186399999999995 1.475523542285156 0.3347595 Q 1.521135542285156 0.3176549999999999 1.574892542285156 0.3176549999999999 M 2.294582356054687 1.106091 Q 2.294582356054687 1.148445 2.266889356054687 1.1769525 Q 2.2391963560546873 1.20546 2.1968423560546873 1.20546 Q 2.1544883560546872 1.20546 2.126795356054687 1.1769525 Q 2.0991023560546873 1.148445 2.0991023560546873 1.106091 L 2.0991023560546873 0.433314 Q 2.0991023560546873 0.39096 2.126795356054687 0.36245249999999996 Q 2.1544883560546872 0.33394499999999994 2.1968423560546873 0.33394499999999994 Q 2.2391963560546873 0.33394499999999994 2.266889356054687 0.36245249999999996 Q 2.294582356054687 0.39096 2.294582356054687 0.433314 L 2.294582356054687 1.106091 M 2.195213356054687 0.22805999999999993 Q 2.139827356054687 0.22805999999999993 2.1170213560546873 0.2101409999999999 Q 2.0942153560546872 0.1922219999999999 2.0942153560546872 0.1466099999999999 L 2.0942153560546872 0.11565899999999996 Q 2.0942153560546872 0.06841799999999987 2.119464856054687 0.05131350000000001 Q 2.144714356054687 0.034208999999999934 2.1968423560546873 0.034208999999999934 Q 2.253857356054687 0.034208999999999934 2.276663356054687 0.05212799999999995 Q 2.2994693560546873 0.07004699999999997 2.2994693560546873 0.11565899999999996 L 2.2994693560546873 0.1466099999999999 Q 2.2994693560546873 0.193851 2.2750343560546873 0.21095549999999996 Q 2.2505993560546873 0.22805999999999993 2.195213356054687 0.22805999999999993 M 2.999650940332031 0.3176549999999999 Q 3.120196940332031 0.3176549999999999 3.182913440332031 0.368154 Q 3.245629940332031 0.41865299999999994 3.269250440332031 0.5025465 Q 3.292870940332031 0.58644 3.292870940332031 0.689067 L 3.292870940332031 1.106091 Q 3.292870940332031 1.148445 3.265177940332031 1.1769525 Q 3.237484940332031 1.20546 3.195130940332031 1.20546 Q 3.152776940332031 1.20546 3.125083940332031 1.1769525 Q 3.0973909403320308 1.148445 3.0973909403320308 1.106091 L 3.0973909403320308 0.689067 Q 3.0973909403320308 0.6353099999999999 3.083544440332031 0.5921415 Q 3.069697940332031 0.5489729999999999 3.033859940332031 0.522909 Q 2.998021940332031 0.496845 2.931232940332031 0.496845 Q 2.866072940332031 0.496845 2.8212754403320313 0.522909 Q 2.776477940332031 0.5489729999999999 2.752857440332031 0.5921415 Q 2.729236940332031 0.6353099999999999 2.729236940332031 0.689067 L 2.729236940332031 1.106091 Q 2.729236940332031 1.148445 2.701543940332031 1.1769525 Q 2.673850940332031 1.20546 2.631496940332031 1.20546 Q 2.589142940332031 1.20546 2.561449940332031 1.1769525 Q 2.5337569403320312 1.148445 2.5337569403320312 1.106091 L 2.5337569403320312 0.433314 Q 2.5337569403320312 0.39096 2.561449940332031 0.36245249999999996 Q 2.589142940332031 0.33394499999999994 2.631496940332031 0.33394499999999994 Q 2.673850940332031 0.33394499999999994 2.701543940332031 0.36245249999999996 Q 2.729236940332031 0.39096 2.729236940332031 0.433314 L 2.729236940332031 0.503361 L 2.704801940332031 0.498474 Q 2.719462940332031 0.470781 2.747155940332031 0.4390155 Q 2.774848940332031 0.40725 2.812315940332031 0.3795569999999999 Q 2.849782940332031 0.35186399999999995 2.897023940332031 0.3347595 Q 2.944264940332031 0.3176549999999999 2.999650940332031 0.3176549999999999 M 3.9457876623046872 1.22175 Q 3.807322662304687 1.22175 3.7055101623046873 1.1639205 Q 3.603697662304687 1.106091 3.5491261623046872 1.006722 Q 3.494554662304687 0.907353 3.494554662304687 0.78192 Q 3.494554662304687 0.6353099999999999 3.5540131623046873 0.5318685 Q 3.613471662304687 0.428427 3.7095826623046873 0.37304099999999996 Q 3.8056936623046873 0.3176549999999999 3.9132076623046874 0.3176549999999999 Q 3.996286662304687 0.3176549999999999 4.070406162304687 0.35186399999999995 Q 4.144525662304687 0.386073 4.201540662304687 0.44553149999999997 Q 4.258555662304687 0.5049899999999999 4.291950162304687 0.583182 Q 4.325344662304687 0.661374 4.325344662304687 0.7493399999999999 Q 4.3237156623046875 0.7884359999999999 4.294393662304687 0.8128709999999999 Q 4.265071662304687 0.837306 4.225975662304688 0.837306 L 3.603697662304687 0.837306 L 3.554827662304687 0.674406 L 4.152670662304687 0.674406 L 4.116832662304687 0.7069859999999999 L 4.116832662304687 0.663003 Q 4.113574662304687 0.6157619999999999 4.083438162304687 0.578295 Q 4.053301662304687 0.540828 4.008504162304687 0.5188364999999999 Q 3.9637066623046873 0.496845 3.9132076623046874 0.496845 Q 3.8643376623046874 0.496845 3.821983662304687 0.5098769999999999 Q 3.7796296623046874 0.522909 3.748678662304687 0.55386 Q 3.717727662304687 0.584811 3.699808662304687 0.6369389999999999 Q 3.681889662304687 0.689067 3.681889662304687 0.768888 Q 3.681889662304687 0.856854 3.7185421623046873 0.9179415 Q 3.755194662304687 0.9790289999999999 3.8130241623046874 1.0107945 Q 3.8708536623046874 1.04256 3.936013662304687 1.04256 Q 3.996286662304687 1.04256 4.032124662304687 1.032786 Q 4.067962662304687 1.023012 4.089954162304688 1.0091655 Q 4.111945662304687 0.995319 4.129864662304687 0.985545 Q 4.159186662304688 0.970884 4.1852506623046875 0.970884 Q 4.2210886623046875 0.970884 4.244709162304687 0.995319 Q 4.268329662304687 1.019754 4.268329662304687 1.0523339999999999 Q 4.268329662304687 1.096317 4.222717662304687 1.132155 Q 4.180363662304687 1.167993 4.103800662304687 1.1948715 Q 4.027237662304687 1.22175 3.9457876623046872 1.22175 M 4.645959701660156 0.063531 Q 4.668765701660155 0.063531 4.6940152016601555 0.0757485 Q 4.719264701660156 0.08796599999999999 4.732296701660156 0.10751399999999989 L 5.128143701660155 0.71676 L 5.046693701660156 0.713502 L 5.452314701660156 0.10751399999999989 Q 5.483265701660156 0.063531 5.532135701660156 0.063531 Q 5.571231701660156 0.063531 5.602182701660156 0.09122399999999997 Q 5.633133701660156 0.11891699999999994 5.633133701660156 0.16290000000000004 L 5.633133701660156 1.106091 Q 5.633133701660156 1.148445 5.6054407016601555 1.1769525 Q 5.577747701660156 1.20546 5.532135701660156 1.20546 Q 5.486523701660156 1.20546 5.458016201660156 1.1769525 Q 5.429508701660156 1.148445 5.429508701660156 1.106091 L 5.429508701660156 0.3388319999999999 L 5.493039701660155 0.35349299999999995 L 5.160723701660156 0.860112 Q 5.1460627016601554 0.878031 5.124071201660156 0.8910629999999999 Q 5.102079701660156 0.904095 5.0792737016601555 0.902466 Q 5.058096701660156 0.904095 5.036105201660156 0.8910629999999999 Q 5.014113701660156 0.878031 4.9994527016601555 0.860112 L 4.688313701660156 0.368154 L 4.730667701660156 0.281817 L 4.730667701660156 1.106091 Q 4.730667701660156 1.148445 4.704603701660155 1.1769525 Q 4.6785397016601555 1.20546 4.636185701660156 1.20546 Q 4.595460701660156 1.20546 4.569396701660156 1.1769525 Q 4.543332701660156 1.148445 4.543332701660156 1.106091 L 4.543332701660156 0.16290000000000004 Q 4.543332701660156 0.12217499999999992 4.5734692016601555 0.09285299999999985 Q 4.603605701660156 0.063531 4.645959701660156 0.063531 M 6.605271586230469 0.3176549999999999 Q 6.647625586230468 0.3176549999999999 6.6753185862304685 0.345348 Q 6.703011586230469 0.37304099999999996 6.703011586230469 0.41702399999999995 L 6.703011586230469 1.106091 Q 6.703011586230469 1.148445 6.6753185862304685 1.1769525 Q 6.647625586230468 1.20546 6.605271586230469 1.20546 Q 6.562917586230469 1.20546 6.535224586230469 1.1769525 Q 6.507531586230469 1.148445 6.507531586230469 1.106091 L 6.507531586230469 1.02627 L 6.543369586230469 1.040931 Q 6.543369586230469 1.062108 6.520563586230469 1.0922445 Q 6.497757586230469 1.122381 6.458661586230469 1.151703 Q 6.419565586230469 1.181025 6.366623086230469 1.2013875 Q 6.313680586230468 1.22175 6.2517785862304684 1.22175 Q 6.139377586230468 1.22175 6.048153586230469 1.1639205 Q 5.956929586230468 1.106091 5.903987086230469 1.0042784999999999 Q 5.8510445862304685 0.902466 5.8510445862304685 0.7705169999999999 Q 5.8510445862304685 0.6369389999999999 5.903987086230469 0.5351265 Q 5.956929586230468 0.433314 6.046524586230468 0.3754845 Q 6.1361195862304685 0.3176549999999999 6.245262586230469 0.3176549999999999 Q 6.315309586230469 0.3176549999999999 6.373953586230469 0.3388319999999999 Q 6.432597586230469 0.3600089999999999 6.475766086230468 0.39258899999999997 Q 6.518934586230468 0.425169 6.542555086230469 0.4585635 Q 6.566175586230469 0.491958 6.566175586230469 0.514764 L 6.507531586230469 0.535941 L 6.507531586230469 0.41702399999999995 Q 6.507531586230469 0.37466999999999995 6.535224586230469 0.34616249999999993 Q 6.562917586230469 0.3176549999999999 6.605271586230469 0.3176549999999999 M 6.276213586230469 1.04256 Q 6.347889586230469 1.04256 6.401646586230469 1.006722 Q 6.455403586230469 0.970884 6.485540086230468 0.908982 Q 6.515676586230469 0.8470799999999999 6.515676586230469 0.7705169999999999 Q 6.515676586230469 0.692325 6.485540086230468 0.630423 Q 6.455403586230469 0.5685209999999999 6.401646586230469 0.532683 Q 6.347889586230469 0.496845 6.276213586230469 0.496845 Q 6.206166586230469 0.496845 6.152409586230469 0.532683 Q 6.098652586230469 0.5685209999999999 6.068516086230469 0.630423 Q 6.0383795862304686 0.692325 6.0383795862304686 0.7705169999999999 Q 6.0383795862304686 0.8470799999999999 6.068516086230469 0.908982 Q 6.098652586230469 0.970884 6.152409586230469 1.006722 Q 6.206166586230469 1.04256 6.276213586230469 1.04256 M 6.903029719335938 1.070253 Q 6.886739719335937 1.047447 6.888368719335937 1.011609 Q 6.889997719335938 0.9757709999999999 6.930722719335937 0.949707 Q 6.956786719335938 0.9334169999999999 6.986108719335937 0.9358605 Q 7.015430719335937 0.938304 7.043123719335937 0.965997 Q 7.090364719335938 1.0132379999999999 7.142492719335937 1.039302 Q 7.194620719335937 1.065366 7.2728127193359375 1.065366 Q 7.297247719335937 1.063737 7.326569719335938 1.0580355 Q 7.355891719335937 1.0523339999999999 7.377883219335937 1.0319715 Q 7.399874719335937 1.011609 7.399874719335937 0.969255 Q 7.399874719335937 0.9334169999999999 7.375439719335938 0.9122399999999999 Q 7.351004719335937 0.8910629999999999 7.311094219335937 0.8764019999999999 Q 7.271183719335937 0.861741 7.222313719335937 0.8487089999999999 Q 7.171814719335937 0.8340479999999999 7.1188722193359375 0.816129 Q 7.065929719335937 0.79821 7.021946719335937 0.7697025 Q 6.977963719335937 0.741195 6.950270719335937 0.693954 Q 6.922577719335937 0.646713 6.922577719335937 0.575037 Q 6.922577719335937 0.493587 6.968189719335937 0.43657199999999996 Q 7.013801719335937 0.3795569999999999 7.086292219335937 0.34860599999999997 Q 7.158782719335937 0.3176549999999999 7.238603719335937 0.3176549999999999 Q 7.289102719335937 0.3176549999999999 7.344488719335937 0.3298725 Q 7.399874719335937 0.34209 7.450373719335937 0.3689684999999999 Q 7.500872719335938 0.39584699999999995 7.535081719335937 0.43982999999999994 Q 7.553000719335937 0.4642649999999999 7.556258719335937 0.498474 Q 7.559516719335937 0.532683 7.525307719335937 0.560376 Q 7.500872719335938 0.579924 7.468292719335937 0.5774805 Q 7.435712719335937 0.575037 7.414535719335937 0.555489 Q 7.386842719335937 0.519651 7.340416219335937 0.498474 Q 7.293989719335937 0.47729699999999997 7.233716719335937 0.47729699999999997 Q 7.209281719335937 0.47729699999999997 7.180774219335937 0.4829985 Q 7.1522667193359375 0.4886999999999999 7.131089719335937 0.5074335 Q 7.109912719335937 0.5261669999999999 7.109912719335937 0.566892 Q 7.109912719335937 0.604359 7.1343477193359375 0.6263504999999999 Q 7.158782719335937 0.648342 7.200322219335937 0.6621885 Q 7.241861719335938 0.6760349999999999 7.289102719335937 0.689067 Q 7.337972719335937 0.7020989999999999 7.3884717193359375 0.720018 Q 7.438970719335937 0.737937 7.481324719335937 0.7672589999999999 Q 7.523678719335937 0.796581 7.549742719335937 0.8430074999999999 Q 7.5758067193359375 0.889434 7.5758067193359375 0.9611099999999999 Q 7.5758067193359375 1.044189 7.5269367193359376 1.102833 Q 7.478066719335937 1.1614769999999999 7.404761719335937 1.1916134999999999 Q 7.331456719335937 1.22175 7.2548937193359375 1.22175 Q 7.158782719335937 1.22175 7.062671719335937 1.1883555 Q 6.966560719335937 1.154961 6.903029719335938 1.070253 M 7.787242169824219 0.35023499999999996 L 8.17331516982422 0.35023499999999996 Q 8.212411169824218 0.35023499999999996 8.238475169824218 0.37629899999999994 Q 8.264539169824218 0.4023629999999999 8.264539169824218 0.44145899999999993 Q 8.264539169824218 0.47892599999999996 8.238475169824218 0.5041755 Q 8.212411169824218 0.5294249999999999 8.17331516982422 0.5294249999999999 L 7.787242169824219 0.5294249999999999 Q 7.748146169824219 0.5294249999999999 7.722082169824219 0.503361 Q 7.696018169824219 0.47729699999999997 7.696018169824219 0.43820099999999995 Q 7.696018169824219 0.4007339999999999 7.722082169824219 0.3754845 Q 7.748146169824219 0.35023499999999996 7.787242169824219 0.35023499999999996 M 7.961545169824219 0.1466099999999999 Q 8.00389916982422 0.1466099999999999 8.030777669824218 0.17511750000000004 Q 8.057656169824218 0.20362499999999994 8.057656169824218 0.24597899999999995 L 8.057656169824218 0.970884 Q 8.057656169824218 0.99369 8.066615669824218 1.008351 Q 8.07557516982422 1.023012 8.091050669824218 1.029528 Q 8.10652616982422 1.036044 8.124445169824218 1.036044 Q 8.143993169824219 1.036044 8.160283169824218 1.0287135 Q 8.176573169824218 1.021383 8.197750169824218 1.021383 Q 8.220556169824219 1.021383 8.239289669824219 1.04256 Q 8.258023169824218 1.063737 8.258023169824218 1.101204 Q 8.258023169824218 1.146816 8.208338669824219 1.176138 Q 8.158654169824219 1.20546 8.10163916982422 1.20546 Q 8.067430169824219 1.20546 8.025890669824218 1.1997585 Q 7.984351169824219 1.194057 7.947698669824219 1.1720655 Q 7.9110461698242185 1.150074 7.886611169824219 1.104462 Q 7.8621761698242185 1.05885 7.8621761698242185 0.9790289999999999 L 7.8621761698242185 0.24597899999999995 Q 7.8621761698242185 0.20362499999999994 7.890683669824218 0.17511750000000004 Q 7.919191169824218 0.1466099999999999 7.961545169824219 0.1466099999999999 M 8.876703847851562 1.22175 Q 8.738238847851562 1.22175 8.636426347851563 1.1639205 Q 8.534613847851562 1.106091 8.480042347851562 1.006722 Q 8.425470847851562 0.907353 8.425470847851562 0.78192 Q 8.425470847851562 0.6353099999999999 8.484929347851562 0.5318685 Q 8.544387847851562 0.428427 8.640498847851562 0.37304099999999996 Q 8.736609847851563 0.3176549999999999 8.844123847851563 0.3176549999999999 Q 8.927202847851563 0.3176549999999999 9.001322347851563 0.35186399999999995 Q 9.075441847851563 0.386073 9.132456847851563 0.44553149999999997 Q 9.189471847851562 0.5049899999999999 9.222866347851562 0.583182 Q 9.256260847851562 0.661374 9.256260847851562 0.7493399999999999 Q 9.254631847851563 0.7884359999999999 9.225309847851562 0.8128709999999999 Q 9.195987847851562 0.837306 9.156891847851563 0.837306 L 8.534613847851562 0.837306 L 8.485743847851563 0.674406 L 9.083586847851562 0.674406 L 9.047748847851562 0.7069859999999999 L 9.047748847851562 0.663003 Q 9.044490847851563 0.6157619999999999 9.014354347851562 0.578295 Q 8.984217847851562 0.540828 8.939420347851563 0.5188364999999999 Q 8.894622847851561 0.496845 8.844123847851563 0.496845 Q 8.795253847851562 0.496845 8.752899847851562 0.5098769999999999 Q 8.710545847851563 0.522909 8.679594847851563 0.55386 Q 8.648643847851563 0.584811 8.630724847851562 0.6369389999999999 Q 8.612805847851563 0.689067 8.612805847851563 0.768888 Q 8.612805847851563 0.856854 8.649458347851562 0.9179415 Q 8.686110847851563 0.9790289999999999 8.743940347851563 1.0107945 Q 8.801769847851562 1.04256 8.866929847851562 1.04256 Q 8.927202847851563 1.04256 8.963040847851563 1.032786 Q 8.998878847851563 1.023012 9.020870347851563 1.0091655 Q 9.042861847851562 0.995319 9.060780847851563 0.985545 Q 9.090102847851563 0.970884 9.116166847851563 0.970884 Q 9.152004847851563 0.970884 9.175625347851563 0.995319 Q 9.199245847851563 1.019754 9.199245847851563 1.0523339999999999 Q 9.199245847851563 1.096317 9.153633847851562 1.132155 Q 9.111279847851563 1.167993 9.034716847851563 1.1948715 Q 8.958153847851563 1.22175 8.876703847851562 1.22175 M 9.555698887207031 1.20546 Q 9.51334488720703 1.20546 9.48565188720703 1.1769525 Q 9.457958887207031 1.148445 9.457958887207031 1.106091 L 9.457958887207031 0.433314 Q 9.457958887207031 0.39096 9.48565188720703 0.36245249999999996 Q 9.51334488720703 0.33394499999999994 9.555698887207031 0.33394499999999994 Q 9.59805288720703 0.33394499999999994 9.62574588720703 0.36245249999999996 Q 9.653438887207031 0.39096 9.653438887207031 0.433314 L 9.653438887207031 0.58644 L 9.64203588720703 0.47729699999999997 Q 9.65995488720703 0.43820099999999995 9.68846238720703 0.40806449999999994 Q 9.71696988720703 0.37792799999999993 9.75280788720703 0.3575655 Q 9.78864588720703 0.3372029999999999 9.82937088720703 0.32742899999999997 Q 9.87009588720703 0.3176549999999999 9.91082088720703 0.3176549999999999 Q 9.95969088720703 0.3176549999999999 9.99308538720703 0.345348 Q 10.02647988720703 0.37304099999999996 10.02647988720703 0.410508 Q 10.02647988720703 0.4642649999999999 9.99878688720703 0.48788549999999997 Q 9.971093887207031 0.511506 9.93851388720703 0.511506 Q 9.90756288720703 0.511506 9.88231338720703 0.500103 Q 9.85706388720703 0.4886999999999999 9.82448388720703 0.4886999999999999 Q 9.79516188720703 0.4886999999999999 9.76502538720703 0.5025465 Q 9.734888887207031 0.516393 9.70963938720703 0.545715 Q 9.68438988720703 0.575037 9.66891438720703 0.6182055 Q 9.653438887207031 0.661374 9.653438887207031 0.720018 L 9.653438887207031 1.106091 Q 9.653438887207031 1.148445 9.62574588720703 1.1769525 Q 9.59805288720703 1.20546 9.555698887207031 1.20546 M 10.153250289843749 1.070253 Q 10.13696028984375 1.047447 10.138589289843749 1.011609 Q 10.140218289843748 0.9757709999999999 10.180943289843748 0.949707 Q 10.207007289843748 0.9334169999999999 10.236329289843749 0.9358605 Q 10.265651289843749 0.938304 10.293344289843748 0.965997 Q 10.340585289843748 1.0132379999999999 10.392713289843748 1.039302 Q 10.44484128984375 1.065366 10.523033289843749 1.065366 Q 10.54746828984375 1.063737 10.576790289843748 1.0580355 Q 10.606112289843749 1.0523339999999999 10.628103789843749 1.0319715 Q 10.65009528984375 1.011609 10.65009528984375 0.969255 Q 10.65009528984375 0.9334169999999999 10.625660289843749 0.9122399999999999 Q 10.601225289843748 0.8910629999999999 10.561314789843749 0.8764019999999999 Q 10.521404289843748 0.861741 10.472534289843749 0.8487089999999999 Q 10.422035289843748 0.8340479999999999 10.369092789843748 0.816129 Q 10.31615028984375 0.79821 10.272167289843749 0.7697025 Q 10.228184289843748 0.741195 10.200491289843749 0.693954 Q 10.17279828984375 0.646713 10.17279828984375 0.575037 Q 10.17279828984375 0.493587 10.218410289843748 0.43657199999999996 Q 10.264022289843748 0.3795569999999999 10.336512789843749 0.34860599999999997 Q 10.40900328984375 0.3176549999999999 10.488824289843748 0.3176549999999999 Q 10.539323289843749 0.3176549999999999 10.594709289843749 0.3298725 Q 10.65009528984375 0.34209 10.700594289843748 0.3689684999999999 Q 10.751093289843748 0.39584699999999995 10.785302289843749 0.43982999999999994 Q 10.803221289843748 0.4642649999999999 10.806479289843749 0.498474 Q 10.80973728984375 0.532683 10.775528289843749 0.560376 Q 10.751093289843748 0.579924 10.718513289843749 0.5774805 Q 10.68593328984375 0.575037 10.664756289843748 0.555489 Q 10.637063289843748 0.519651 10.590636789843748 0.498474 Q 10.544210289843749 0.47729699999999997 10.483937289843748 0.47729699999999997 Q 10.459502289843748 0.47729699999999997 10.430994789843748 0.4829985 Q 10.402487289843748 0.4886999999999999 10.381310289843748 0.5074335 Q 10.360133289843748 0.5261669999999999 10.360133289843748 0.566892 Q 10.360133289843748 0.604359 10.384568289843749 0.6263504999999999 Q 10.40900328984375 0.648342 10.450542789843748 0.6621885 Q 10.492082289843749 0.6760349999999999 10.539323289843749 0.689067 Q 10.588193289843748 0.7020989999999999 10.638692289843748 0.720018 Q 10.689191289843748 0.737937 10.731545289843748 0.7672589999999999 Q 10.77389928984375 0.796581 10.799963289843749 0.8430074999999999 Q 10.826027289843749 0.889434 10.826027289843749 0.9611099999999999 Q 10.826027289843749 1.044189 10.777157289843748 1.102833 Q 10.728287289843749 1.1614769999999999 10.654982289843748 1.1916134999999999 Q 10.581677289843748 1.22175 10.505114289843748 1.22175 Q 10.40900328984375 1.22175 10.312892289843749 1.1883555 Q 10.216781289843748 1.154961 10.153250289843749 1.070253" fill="#f9f9f9" fill-rule="nonzero"></path></g><g><path d=" M 0.08892 1.5961162500000001 Q 0.10054800000000001 1.5961162500000001 0.108756 1.6039822500000003 Q 0.11696400000000001 1.6118482500000002 0.11696400000000001 1.62416025 L 0.11696400000000001 2.0468722500000003 Q 0.11696400000000001 2.0585002500000003 0.10841400000000001 2.06670825 Q 0.09986400000000001 2.0749162500000002 0.08823600000000001 2.0749162500000002 Q 0.07524 2.0749162500000002 0.067716 2.06670825 Q 0.060192 2.0585002500000003 0.060192 2.0468722500000003 L 0.060192 1.62416025 Q 0.060192 1.6118482500000002 0.0684 1.6039822500000003 Q 0.07660800000000001 1.5961162500000001 0.08892 1.5961162500000001 M 0.40424400000000005 1.5961162500000001 Q 0.41655600000000004 1.5961162500000001 0.424422 1.6039822500000003 Q 0.432288 1.6118482500000002 0.432288 1.62416025 L 0.432288 2.0468722500000003 Q 0.432288 2.0585002500000003 0.42408 2.06670825 Q 0.415872 2.0749162500000002 0.40356000000000003 2.0749162500000002 Q 0.391932 2.0749162500000002 0.383724 2.06670825 Q 0.375516 2.0585002500000003 0.375516 2.0468722500000003 L 0.375516 1.62416025 Q 0.375516 1.6118482500000002 0.384066 1.6039822500000003 Q 0.392616 1.5961162500000001 0.40424400000000005 1.5961162500000001 M 0.08618400000000001 1.8047362500000002 L 0.404928 1.8047362500000002 L 0.40424400000000005 1.8580882500000002 L 0.084132 1.8580882500000002 L 0.08618400000000001 1.8047362500000002 M 0.6025839609375001 2.0468722500000003 Q 0.6025839609375001 2.0585002500000003 0.5947179609375001 2.06670825 Q 0.5868519609375 2.0749162500000002 0.5752239609375001 2.0749162500000002 Q 0.5629119609375001 2.0749162500000002 0.5553879609375001 2.06670825 Q 0.5478639609375001 2.0585002500000003 0.5478639609375001 2.0468722500000003 L 0.5478639609375001 1.7431762500000003 Q 0.5478639609375001 1.7315482500000003 0.5557299609375 1.7236822500000002 Q 0.5635959609375001 1.7158162500000003 0.5752239609375001 1.7158162500000003 Q 0.5868519609375 1.7158162500000003 0.5947179609375001 1.7236822500000002 Q 0.6025839609375001 1.7315482500000003 0.6025839609375001 1.7431762500000003 L 0.6025839609375001 2.0468722500000003 M 0.5752239609375001 1.6699882500000003 Q 0.5581239609375 1.6699882500000003 0.5499159609375001 1.6631482500000003 Q 0.5417079609375001 1.6563082500000001 0.5417079609375001 1.6419442500000003 L 0.5417079609375001 1.6323682500000003 Q 0.5417079609375001 1.6180042500000003 0.5505999609375001 1.6111642500000003 Q 0.5594919609375001 1.6043242500000003 0.5759079609375001 1.6043242500000003 Q 0.5923239609375001 1.6043242500000003 0.6005319609375 1.6111642500000003 Q 0.6087399609375 1.6180042500000003 0.6087399609375 1.6323682500000003 L 0.6087399609375 1.6419442500000003 Q 0.6087399609375 1.6563082500000001 0.6001899609375001 1.6631482500000003 Q 0.5916399609375 1.6699882500000003 0.5752239609375001 1.6699882500000003 M 0.7352856386718751 2.0749162500000002 Q 0.723657638671875 2.0749162500000002 0.7157916386718751 2.06670825 Q 0.7079256386718751 2.0585002500000003 0.7079256386718751 2.0468722500000003 L 0.7079256386718751 1.7486482500000002 Q 0.7079256386718751 1.7370202500000003 0.7157916386718751 1.7291542500000001 Q 0.723657638671875 1.7212882500000002 0.7352856386718751 1.7212882500000002 Q 0.7475976386718751 1.7212882500000002 0.7551216386718751 1.7291542500000001 Q 0.7626456386718751 1.7370202500000003 0.7626456386718751 1.7486482500000002 L 0.7626456386718751 1.8389362500000002 L 0.7544376386718751 1.8245722500000001 Q 0.7585416386718751 1.8033682500000001 0.7691436386718751 1.78319025 Q 0.7797456386718751 1.7630122500000003 0.7961616386718751 1.7469382500000004 Q 0.812577638671875 1.7308642500000002 0.833781638671875 1.7216302500000003 Q 0.854985638671875 1.7123962500000003 0.8802936386718752 1.7123962500000003 Q 0.8953416386718751 1.7123962500000003 0.907995638671875 1.71957825 Q 0.9206496386718751 1.7267602500000003 0.9206496386718751 1.7397562500000001 Q 0.9206496386718751 1.7541202500000002 0.9131256386718751 1.7609602500000001 Q 0.905601638671875 1.7678002500000003 0.8960256386718751 1.7678002500000003 Q 0.8871336386718751 1.7678002500000003 0.8789256386718751 1.7640382500000003 Q 0.8707176386718751 1.7602762500000002 0.8584056386718751 1.7602762500000002 Q 0.8413056386718751 1.7602762500000002 0.8245476386718751 1.7695102500000002 Q 0.807789638671875 1.7787442500000004 0.793767638671875 1.7958442500000003 Q 0.7797456386718751 1.8129442500000001 0.7711956386718751 1.8344902500000002 Q 0.7626456386718751 1.8560362500000003 0.7626456386718751 1.8806602500000003 L 0.7626456386718751 2.0468722500000003 Q 0.7626456386718751 2.0585002500000003 0.754779638671875 2.06670825 Q 0.7469136386718751 2.0749162500000002 0.7352856386718751 2.0749162500000002 M 1.1340770097656252 2.08175625 Q 1.0793570097656253 2.08175625 1.0383170097656251 2.0585002500000003 Q 0.9972770097656253 2.0352442500000003 0.9747050097656252 1.9945462500000002 Q 0.9521330097656252 1.9538482500000003 0.9521330097656252 1.9004962500000002 Q 0.9521330097656252 1.84098825 0.9757310097656252 1.7989222500000002 Q 0.9993290097656252 1.7568562500000002 1.0369490097656253 1.7346262500000003 Q 1.0745690097656253 1.7123962500000003 1.1169770097656253 1.7123962500000003 Q 1.1491250097656251 1.7123962500000003 1.1781950097656253 1.7240242500000003 Q 1.2072650097656252 1.7356522500000002 1.2301790097656253 1.7578822500000002 Q 1.2530930097656252 1.7801122500000002 1.2667730097656253 1.8112342500000003 Q 1.2804530097656253 1.8423562500000001 1.2811370097656252 1.8806602500000003 Q 1.2804530097656253 1.8916042500000003 1.2722450097656253 1.8991282500000002 Q 1.2640370097656253 1.9066522500000003 1.2530930097656252 1.9066522500000003 L 0.9829130097656252 1.9066522500000003 L 0.9706010097656252 1.8594562500000003 L 1.2339410097656254 1.8594562500000003 L 1.2229970097656253 1.8690322500000003 L 1.2229970097656253 1.8539842500000003 Q 1.2209450097656251 1.8259402500000002 1.2048710097656252 1.8057622500000003 Q 1.1887970097656253 1.7855842500000003 1.1655410097656254 1.7746402500000003 Q 1.1422850097656252 1.7636962500000002 1.1169770097656253 1.7636962500000002 Q 1.0964570097656252 1.7636962500000002 1.0762790097656252 1.7708782500000002 Q 1.0561010097656252 1.7780602500000002 1.0400270097656252 1.7941342500000002 Q 1.0239530097656253 1.8102082500000003 1.0143770097656253 1.8355162500000002 Q 1.0048010097656253 1.8608242500000003 1.0048010097656253 1.8963922500000003 Q 1.0048010097656253 1.9360642500000003 1.0208750097656252 1.9661602500000002 Q 1.0369490097656253 1.9962562500000003 1.0656770097656252 2.01369825 Q 1.0944050097656253 2.0311402500000004 1.1320250097656253 2.0311402500000004 Q 1.1566490097656252 2.0311402500000004 1.1744330097656253 2.02498425 Q 1.1922170097656253 2.0188282500000003 1.2048710097656252 2.00959425 Q 1.2175250097656252 2.0003602500000004 1.2264170097656253 1.9907842500000001 Q 1.2353090097656252 1.9846282500000003 1.2442010097656253 1.9846282500000003 Q 1.2537770097656251 1.9846282500000003 1.2606170097656253 1.9914682500000003 Q 1.2674570097656253 1.9983082500000002 1.2674570097656253 2.00788425 Q 1.2674570097656253 2.0195122500000005 1.2565130097656252 2.0284042500000004 Q 1.2366770097656252 2.0496082500000004 1.2041870097656253 2.06568225 Q 1.1716970097656252 2.08175625 1.1340770097656252 2.08175625 M 1.7093554101562503 1.57012425 Q 1.7209834101562502 1.57012425 1.7336374101562502 1.5728602500000002 Q 1.7462914101562501 1.5755962500000003 1.7555254101562503 1.5824362500000002 Q 1.76475941015625 1.5892762500000002 1.76475941015625 1.6009042500000001 Q 1.76475941015625 1.6118482500000002 1.75791941015625 1.6190302500000002 Q 1.7510794101562501 1.6262122500000002 1.74150341015625 1.6262122500000002 Q 1.7353474101562503 1.6262122500000002 1.7244034101562502 1.6224502500000002 Q 1.7134594101562501 1.6186882500000002 1.7018314101562502 1.6186882500000002 Q 1.68609941015625 1.6186882500000002 1.6761814101562502 1.6255282500000003 Q 1.6662634101562501 1.6323682500000003 1.6618174101562502 1.6436542500000002 Q 1.6573714101562502 1.6549402500000001 1.6573714101562502 1.6686202500000002 L 1.6573714101562502 2.0468722500000003 Q 1.6573714101562502 2.0585002500000003 1.64950541015625 2.06670825 Q 1.6416394101562501 2.0749162500000002 1.6300114101562502 2.0749162500000002 Q 1.61769941015625 2.0749162500000002 1.6101754101562502 2.06670825 Q 1.6026514101562501 2.0585002500000003 1.6026514101562501 2.0468722500000003 L 1.6026514101562501 1.6693042500000002 Q 1.6026514101562501 1.6234762500000002 1.6310374101562501 1.5968002500000003 Q 1.6594234101562502 1.57012425 1.7093554101562503 1.57012425 M 1.72850741015625 1.7267602500000003 Q 1.7394514101562502 1.7267602500000003 1.7469754101562502 1.7339422500000001 Q 1.75449941015625 1.7411242500000002 1.75449941015625 1.7520682500000002 Q 1.75449941015625 1.7630122500000003 1.7469754101562502 1.7701942500000003 Q 1.7394514101562502 1.77737625 1.72850741015625 1.77737625 L 1.5568234101562501 1.77737625 Q 1.54587941015625 1.77737625 1.5383554101562502 1.7698522500000002 Q 1.5308314101562501 1.7623282500000002 1.5308314101562501 1.7520682500000002 Q 1.5308314101562501 1.7404402500000002 1.5383554101562502 1.7336002500000003 Q 1.54587941015625 1.7267602500000003 1.5568234101562501 1.7267602500000003 L 1.72850741015625 1.7267602500000003 M 2.1573754101562503 1.8970762500000002 Q 2.1573754101562503 1.9504282500000003 2.13411941015625 1.9921522500000002 Q 2.11086341015625 2.03387625 2.0708494101562502 2.05781625 Q 2.03083541015625 2.08175625 1.98021941015625 2.08175625 Q 1.9302874101562502 2.08175625 1.8902734101562502 2.05781625 Q 1.8502594101562502 2.03387625 1.8266614101562502 1.9921522500000002 Q 1.8030634101562502 1.9504282500000003 1.8030634101562502 1.8970762500000002 Q 1.8030634101562502 1.8437242500000002 1.8266614101562502 1.8020002500000003 Q 1.8502594101562502 1.7602762500000002 1.8902734101562502 1.7363362500000004 Q 1.9302874101562502 1.7123962500000003 1.98021941015625 1.7123962500000003 Q 2.03083541015625 1.7123962500000003 2.0708494101562502 1.7363362500000004 Q 2.11086341015625 1.7602762500000002 2.13411941015625 1.8020002500000003 Q 2.1573754101562503 1.8437242500000002 2.1573754101562503 1.8970762500000002 M 2.1026554101562502 1.8970762500000002 Q 2.1026554101562502 1.8574042500000003 2.08658141015625 1.8273082500000002 Q 2.07050741015625 1.7972122500000003 2.0428054101562503 1.7801122500000002 Q 2.01510341015625 1.7630122500000003 1.98021941015625 1.7630122500000003 Q 1.94601941015625 1.7630122500000003 1.91797541015625 1.7801122500000002 Q 1.88993141015625 1.7972122500000003 1.87385741015625 1.8273082500000002 Q 1.85778341015625 1.8574042500000003 1.85778341015625 1.8970762500000002 Q 1.85778341015625 1.9360642500000003 1.87385741015625 1.9661602500000002 Q 1.88993141015625 1.9962562500000003 1.91797541015625 2.01369825 Q 1.94601941015625 2.0311402500000004 1.98021941015625 2.0311402500000004 Q 2.01510341015625 2.0311402500000004 2.0428054101562503 2.01369825 Q 2.07050741015625 1.9962562500000003 2.08658141015625 1.9661602500000002 Q 2.1026554101562502 1.9360642500000003 2.1026554101562502 1.8970762500000002 M 2.270912396484375 2.0749162500000002 Q 2.259284396484375 2.0749162500000002 2.2514183964843753 2.06670825 Q 2.2435523964843753 2.0585002500000003 2.2435523964843753 2.0468722500000003 L 2.2435523964843753 1.7486482500000002 Q 2.2435523964843753 1.7370202500000003 2.2514183964843753 1.7291542500000001 Q 2.259284396484375 1.7212882500000002 2.270912396484375 1.7212882500000002 Q 2.2832243964843753 1.7212882500000002 2.290748396484375 1.7291542500000001 Q 2.298272396484375 1.7370202500000003 2.298272396484375 1.7486482500000002 L 2.298272396484375 1.8389362500000002 L 2.290064396484375 1.8245722500000001 Q 2.294168396484375 1.8033682500000001 2.304770396484375 1.78319025 Q 2.315372396484375 1.7630122500000003 2.331788396484375 1.7469382500000004 Q 2.348204396484375 1.7308642500000002 2.369408396484375 1.7216302500000003 Q 2.390612396484375 1.7123962500000003 2.415920396484375 1.7123962500000003 Q 2.430968396484375 1.7123962500000003 2.443622396484375 1.71957825 Q 2.456276396484375 1.7267602500000003 2.456276396484375 1.7397562500000001 Q 2.456276396484375 1.7541202500000002 2.448752396484375 1.7609602500000001 Q 2.4412283964843753 1.7678002500000003 2.4316523964843753 1.7678002500000003 Q 2.422760396484375 1.7678002500000003 2.414552396484375 1.7640382500000003 Q 2.406344396484375 1.7602762500000002 2.3940323964843753 1.7602762500000002 Q 2.376932396484375 1.7602762500000002 2.360174396484375 1.7695102500000002 Q 2.343416396484375 1.7787442500000004 2.3293943964843753 1.7958442500000003 Q 2.315372396484375 1.8129442500000001 2.306822396484375 1.8344902500000002 Q 2.298272396484375 1.8560362500000003 2.298272396484375 1.8806602500000003 L 2.298272396484375 2.0468722500000003 Q 2.298272396484375 2.0585002500000003 2.290406396484375 2.06670825 Q 2.282540396484375 2.0749162500000002 2.270912396484375 2.0749162500000002 M 3.007597763671875 1.7178682500000002 Q 3.0199097636718752 1.7178682500000002 3.0274337636718753 1.7257342500000004 Q 3.0349577636718754 1.7336002500000003 3.0349577636718754 1.7452282500000003 L 3.0349577636718754 2.0468722500000003 Q 3.0349577636718754 2.0585002500000003 3.0270917636718755 2.06670825 Q 3.019225763671875 2.0749162500000002 3.007597763671875 2.0749162500000002 Q 2.995969763671875 2.0749162500000002 2.9881037636718752 2.06670825 Q 2.9802377636718753 2.0585002500000003 2.9802377636718753 2.0468722500000003 L 2.9802377636718753 1.9818922500000002 L 2.993233763671875 1.9805242500000002 Q 2.993233763671875 1.9955722500000002 2.9829737636718754 2.01335625 Q 2.9727137636718752 2.0311402500000004 2.9549297636718754 2.0465302500000004 Q 2.937145763671875 2.0619202500000005 2.913205763671875 2.0718382500000003 Q 2.889265763671875 2.08175625 2.861221763671875 2.08175625 Q 2.814709763671875 2.08175625 2.777431763671875 2.0574742500000003 Q 2.7401537636718754 2.0331922500000004 2.7189497636718754 1.9914682500000003 Q 2.6977457636718754 1.9497442500000002 2.6977457636718754 1.8963922500000003 Q 2.6977457636718754 1.8423562500000001 2.719291763671875 1.8009742500000003 Q 2.7408377636718755 1.7595922500000003 2.777431763671875 1.7359942500000003 Q 2.814025763671875 1.7123962500000003 2.8598537636718753 1.7123962500000003 Q 2.889265763671875 1.7123962500000003 2.9145737636718754 1.7219722500000003 Q 2.9398817636718753 1.7315482500000003 2.9586917636718755 1.7479642500000003 Q 2.9775017636718752 1.7643802500000003 2.9877617636718754 1.7842162500000003 Q 2.998021763671875 1.8040522500000002 2.998021763671875 1.8238882500000002 L 2.9802377636718753 1.81978425 L 2.9802377636718753 1.7452282500000003 Q 2.9802377636718753 1.7336002500000003 2.9881037636718752 1.7257342500000004 Q 2.995969763671875 1.7178682500000002 3.007597763671875 1.7178682500000002 M 2.8666937636718752 2.0311402500000004 Q 2.9008937636718755 2.0311402500000004 2.9272277636718753 2.01335625 Q 2.953561763671875 1.9955722500000002 2.9686097636718753 1.9651342500000002 Q 2.983657763671875 1.9346962500000002 2.983657763671875 1.8963922500000003 Q 2.983657763671875 1.8587722500000003 2.9686097636718753 1.8283342500000002 Q 2.953561763671875 1.7978962500000002 2.9272277636718753 1.7804542500000002 Q 2.9008937636718755 1.7630122500000003 2.8666937636718752 1.7630122500000003 Q 2.833177763671875 1.7630122500000003 2.8068437636718753 1.7801122500000002 Q 2.7805097636718754 1.7972122500000003 2.7654617636718752 1.8273082500000002 Q 2.750413763671875 1.8574042500000003 2.750413763671875 1.8963922500000003 Q 2.750413763671875 1.9346962500000002 2.7654617636718752 1.9651342500000002 Q 2.7805097636718754 1.9955722500000002 2.8068437636718753 2.01335625 Q 2.833177763671875 2.0311402500000004 2.8666937636718752 2.0311402500000004 M 3.506940474609375 1.7158162500000003 Q 3.553452474609375 1.7158162500000003 3.582522474609375 1.7394142500000003 Q 3.611592474609375 1.7630122500000003 3.621168474609375 1.8061042500000002 L 3.610908474609375 1.8061042500000002 L 3.615696474609375 1.79379225 Q 3.623904474609375 1.7746402500000003 3.643740474609375 1.7568562500000002 Q 3.663576474609375 1.7390722500000002 3.689568474609375 1.7274442500000002 Q 3.715560474609375 1.7158162500000003 3.743604474609375 1.7158162500000003 Q 3.788748474609375 1.7158162500000003 3.814740474609375 1.7353102500000002 Q 3.840732474609375 1.7548042500000003 3.852018474609375 1.7872942500000002 Q 3.863304474609375 1.81978425 3.863304474609375 1.8601402500000002 L 3.863304474609375 2.0468722500000003 Q 3.863304474609375 2.0585002500000003 3.8554384746093753 2.06670825 Q 3.847572474609375 2.0749162500000002 3.835944474609375 2.0749162500000002 Q 3.823632474609375 2.0749162500000002 3.8161084746093747 2.06670825 Q 3.808584474609375 2.0585002500000003 3.808584474609375 2.0468722500000003 L 3.808584474609375 1.8615082500000002 Q 3.808584474609375 1.8348322500000003 3.800718474609375 1.8132862500000002 Q 3.792852474609375 1.7917402500000001 3.775410474609375 1.7790862500000002 Q 3.757968474609375 1.7664322500000003 3.727872474609375 1.7664322500000003 Q 3.699828474609375 1.7664322500000003 3.676572474609375 1.7790862500000002 Q 3.653316474609375 1.7917402500000001 3.6396364746093752 1.8132862500000002 Q 3.625956474609375 1.8348322500000003 3.625956474609375 1.8615082500000002 L 3.625956474609375 2.0468722500000003 Q 3.625956474609375 2.0585002500000003 3.6184324746093752 2.06670825 Q 3.610908474609375 2.0749162500000002 3.598596474609375 2.0749162500000002 Q 3.586968474609375 2.0749162500000002 3.579102474609375 2.06670825 Q 3.5712364746093748 2.0585002500000003 3.5712364746093748 2.0468722500000003 L 3.5712364746093748 1.8594562500000003 Q 3.5712364746093748 1.8334642500000002 3.564054474609375 1.8126022500000003 Q 3.556872474609375 1.7917402500000001 3.539772474609375 1.7790862500000002 Q 3.522672474609375 1.7664322500000003 3.492576474609375 1.7664322500000003 Q 3.4652164746093748 1.7664322500000003 3.442644474609375 1.7790862500000002 Q 3.420072474609375 1.7917402500000001 3.406392474609375 1.8126022500000003 Q 3.392712474609375 1.8334642500000002 3.392712474609375 1.8594562500000003 L 3.392712474609375 2.0468722500000003 Q 3.392712474609375 2.0585002500000003 3.384846474609375 2.06670825 Q 3.376980474609375 2.0749162500000002 3.365352474609375 2.0749162500000002 Q 3.353724474609375 2.0749162500000002 3.345858474609375 2.06670825 Q 3.337992474609375 2.0585002500000003 3.337992474609375 2.0468722500000003 L 3.337992474609375 1.7486482500000002 Q 3.337992474609375 1.7370202500000003 3.345858474609375 1.7291542500000001 Q 3.353724474609375 1.7212882500000002 3.365352474609375 1.7212882500000002 Q 3.377664474609375 1.7212882500000002 3.385188474609375 1.7291542500000001 Q 3.392712474609375 1.7370202500000003 3.392712474609375 1.7486482500000002 L 3.392712474609375 1.8006322500000003 L 3.377664474609375 1.8170482500000003 Q 3.380400474609375 1.7992642500000002 3.391686474609375 1.7814802500000002 Q 3.402972474609375 1.7636962500000002 3.420756474609375 1.7486482500000002 Q 3.438540474609375 1.7336002500000003 3.460428474609375 1.7247082500000002 Q 3.482316474609375 1.7158162500000003 3.506940474609375 1.7158162500000003 M 4.303811162109375 1.8970762500000002 Q 4.303811162109375 1.9504282500000003 4.280555162109375 1.9921522500000002 Q 4.257299162109375 2.03387625 4.217285162109375 2.05781625 Q 4.177271162109375 2.08175625 4.126655162109375 2.08175625 Q 4.076723162109375 2.08175625 4.036709162109375 2.05781625 Q 3.996695162109375 2.03387625 3.973097162109375 1.9921522500000002 Q 3.949499162109375 1.9504282500000003 3.949499162109375 1.8970762500000002 Q 3.949499162109375 1.8437242500000002 3.973097162109375 1.8020002500000003 Q 3.996695162109375 1.7602762500000002 4.036709162109375 1.7363362500000004 Q 4.076723162109375 1.7123962500000003 4.126655162109375 1.7123962500000003 Q 4.177271162109375 1.7123962500000003 4.217285162109375 1.7363362500000004 Q 4.257299162109375 1.7602762500000002 4.280555162109375 1.8020002500000003 Q 4.303811162109375 1.8437242500000002 4.303811162109375 1.8970762500000002 M 4.249091162109375 1.8970762500000002 Q 4.249091162109375 1.8574042500000003 4.233017162109375 1.8273082500000002 Q 4.216943162109375 1.7972122500000003 4.189241162109375 1.7801122500000002 Q 4.161539162109375 1.7630122500000003 4.126655162109375 1.7630122500000003 Q 4.092455162109375 1.7630122500000003 4.0644111621093755 1.7801122500000002 Q 4.036367162109375 1.7972122500000003 4.020293162109375 1.8273082500000002 Q 4.004219162109375 1.8574042500000003 4.004219162109375 1.8970762500000002 Q 4.004219162109375 1.9360642500000003 4.020293162109375 1.9661602500000002 Q 4.036367162109375 1.9962562500000003 4.0644111621093755 2.01369825 Q 4.092455162109375 2.0311402500000004 4.126655162109375 2.0311402500000004 Q 4.161539162109375 2.0311402500000004 4.189241162109375 2.01369825 Q 4.216943162109375 1.9962562500000003 4.233017162109375 1.9661602500000002 Q 4.249091162109375 1.9360642500000003 4.249091162109375 1.8970762500000002 M 4.565776148437499 1.7123962500000003 Q 4.6122881484375 1.7123962500000003 4.638964148437499 1.7315482500000003 Q 4.665640148437499 1.7507002500000002 4.6769261484374995 1.7828482500000002 Q 4.6882121484375 1.81499625 4.6882121484375 1.8546682500000002 L 4.6882121484375 2.0468722500000003 Q 4.6882121484375 2.0585002500000003 4.6803461484375 2.06670825 Q 4.6724801484375 2.0749162500000002 4.6608521484375 2.0749162500000002 Q 4.6492241484375 2.0749162500000002 4.6413581484375 2.06670825 Q 4.6334921484375 2.0585002500000003 4.6334921484375 2.0468722500000003 L 4.6334921484375 1.8560362500000003 Q 4.6334921484375 1.8300442500000003 4.625626148437499 1.80918225 Q 4.617760148437499 1.7883202500000002 4.5996341484375 1.7756662500000002 Q 4.5815081484375 1.7630122500000003 4.550044148437499 1.7630122500000003 Q 4.521316148437499 1.7630122500000003 4.4973761484375 1.7756662500000002 Q 4.4734361484375 1.7883202500000002 4.4590721484374995 1.80918225 Q 4.4447081484375 1.8300442500000003 4.4447081484375 1.8560362500000003 L 4.4447081484375 2.0468722500000003 Q 4.4447081484375 2.0585002500000003 4.4368421484375 2.06670825 Q 4.428976148437499 2.0749162500000002 4.417348148437499 2.0749162500000002 Q 4.405720148437499 2.0749162500000002 4.397854148437499 2.06670825 Q 4.389988148437499 2.0585002500000003 4.389988148437499 2.0468722500000003 L 4.389988148437499 1.7486482500000002 Q 4.389988148437499 1.7370202500000003 4.397854148437499 1.7291542500000001 Q 4.405720148437499 1.7212882500000002 4.417348148437499 1.7212882500000002 Q 4.4296601484375 1.7212882500000002 4.4371841484375 1.7291542500000001 Q 4.4447081484375 1.7370202500000003 4.4447081484375 1.7486482500000002 L 4.4447081484375 1.7972122500000003 L 4.4310281484375 1.8122602500000002 Q 4.434448148437499 1.7944762500000002 4.4467601484375 1.7763502500000001 Q 4.4590721484374995 1.7582242500000003 4.4775401484375 1.7438602500000002 Q 4.496008148437499 1.7294962500000002 4.5185801484375 1.7209462500000003 Q 4.5411521484375 1.7123962500000003 4.565776148437499 1.7123962500000003 M 4.782593460937499 1.7233402500000001 L 4.9433334609375 1.7233402500000001 Q 4.954277460937499 1.7233402500000001 4.961459460937499 1.7308642500000002 Q 4.9686414609375 1.7383882500000003 4.9686414609375 1.7486482500000002 Q 4.9686414609375 1.7595922500000003 4.961459460937499 1.76677425 Q 4.954277460937499 1.7739562500000003 4.9433334609375 1.7739562500000003 L 4.782593460937499 1.7739562500000003 Q 4.772333460937499 1.7739562500000003 4.764809460937499 1.7664322500000003 Q 4.757285460937499 1.7589082500000002 4.757285460937499 1.7479642500000003 Q 4.757285460937499 1.7377042500000002 4.764809460937499 1.7305222500000002 Q 4.772333460937499 1.7233402500000001 4.782593460937499 1.7233402500000001 M 4.854413460937499 1.6303162500000001 Q 4.866041460937499 1.6303162500000001 4.873565460937499 1.6381822500000003 Q 4.881089460937499 1.6460482500000002 4.881089460937499 1.6576762500000002 L 4.881089460937499 1.9880482500000003 Q 4.881089460937499 2.0044642500000003 4.8858774609374995 2.01267225 Q 4.890665460937499 2.0208802500000003 4.898531460937499 2.02395825 Q 4.906397460937499 2.02703625 4.913921460937499 2.02703625 Q 4.920761460937499 2.02703625 4.9258914609375 2.0246422500000003 Q 4.931021460937499 2.02224825 4.9378614609375 2.02224825 Q 4.944701460937499 2.02224825 4.950515460937499 2.02874625 Q 4.956329460937499 2.0352442500000003 4.956329460937499 2.04550425 Q 4.956329460937499 2.05781625 4.941965460937499 2.06636625 Q 4.927601460937499 2.0749162500000002 4.909817460937499 2.0749162500000002 Q 4.900241460937499 2.0749162500000002 4.886219460937499 2.0735482500000004 Q 4.8721974609375 2.07218025 4.8585174609375 2.06465625 Q 4.844837460937499 2.0571322500000004 4.8356034609375 2.03969025 Q 4.826369460937499 2.02224825 4.826369460937499 1.9907842500000001 L 4.826369460937499 1.6576762500000002 Q 4.826369460937499 1.6460482500000002 4.834577460937499 1.6381822500000003 Q 4.842785460937499 1.6303162500000001 4.854413460937499 1.6303162500000001 M 5.222389095703124 1.7158162500000003 Q 5.267533095703124 1.7158162500000003 5.293867095703124 1.7353102500000002 Q 5.3202010957031245 1.7548042500000003 5.331487095703125 1.7872942500000002 Q 5.342773095703124 1.81978425 5.342773095703124 1.8594562500000003 L 5.342773095703124 2.0468722500000003 Q 5.342773095703124 2.0585002500000003 5.334907095703124 2.06670825 Q 5.327041095703124 2.0749162500000002 5.315413095703124 2.0749162500000002 Q 5.303785095703124 2.0749162500000002 5.295919095703124 2.06670825 Q 5.288053095703124 2.0585002500000003 5.288053095703124 2.0468722500000003 L 5.288053095703124 1.8594562500000003 Q 5.288053095703124 1.8334642500000002 5.280529095703124 1.8126022500000003 Q 5.273005095703124 1.7917402500000001 5.255563095703124 1.7790862500000002 Q 5.238121095703124 1.7664322500000003 5.208025095703125 1.7664322500000003 Q 5.179981095703124 1.7664322500000003 5.156725095703124 1.7790862500000002 Q 5.133469095703124 1.7917402500000001 5.1197890957031245 1.8126022500000003 Q 5.1061090957031245 1.8334642500000002 5.1061090957031245 1.8594562500000003 L 5.1061090957031245 2.0468722500000003 Q 5.1061090957031245 2.0585002500000003 5.098243095703125 2.06670825 Q 5.090377095703124 2.0749162500000002 5.078749095703124 2.0749162500000002 Q 5.067121095703124 2.0749162500000002 5.059255095703124 2.06670825 Q 5.051389095703124 2.0585002500000003 5.051389095703124 2.0468722500000003 L 5.051389095703124 1.5961162500000001 Q 5.051389095703124 1.5844882500000002 5.059255095703124 1.5766222500000002 Q 5.067121095703124 1.5687562500000003 5.078749095703124 1.5687562500000003 Q 5.091061095703124 1.5687562500000003 5.0985850957031245 1.5766222500000002 Q 5.1061090957031245 1.5844882500000002 5.1061090957031245 1.5961162500000001 L 5.1061090957031245 1.8006322500000003 L 5.092429095703125 1.8156802500000002 Q 5.095849095703124 1.7978962500000002 5.107477095703124 1.7797702500000003 Q 5.119105095703124 1.7616442500000002 5.136889095703125 1.7472802500000002 Q 5.154673095703124 1.7329162500000002 5.176561095703124 1.72436625 Q 5.198449095703125 1.7158162500000003 5.222389095703124 1.7158162500000003" fill="#e9e9e5" fill-rule="nonzero"></path></g><g clip-path="url(&quot;#SvgjsClipPath1002&quot;)"><g clip-path="url(&quot;#SvgjsClipPath1000&quot;)"><path d=" M -0.6244390766199226 1.644755854418715 L -0.843538977365283 1.4256559536733544 L -0.8115484062874749 1.393680656203127 C -0.7626767250487745 1.3445707800186482 -0.7521971684067477 1.2690494580070124 -0.7858505615329214 1.2084881642869543 C -0.6885271340286037 1.1111800103902172 -0.6398679658777084 1.0625182966380586 -0.6398730570802351 1.0625030230304777 C -0.5892559353232321 1.0122150253249127 -0.5876375582604909 0.9308468107069645 -0.6362150280646541 0.878585877347295 L -1.3657130733347764 0.14913365289991487 C -1.017252921497812 0.16105554198552208 -0.7034514326359922 0.3632679757106667 -0.548617445547589 0.6756668318223975 C -0.3937834584591853 0.9880656879341285 -0.4229023766240818 1.3602394798242172 -0.6244390766199222 1.6447558544187146 Z M -0.8302662123776414 1.855905842418313 L -1.0521000888799499 1.6341406971501178 C -1.0521000888799499 1.6341406971501178 -1.062753430167499 1.6448322224566185 -1.084067749546387 1.6661236314241357 C -1.1331714754196118 1.7149991132051252 -1.2086903697919722 1.7254849937507866 -1.269252604658769 1.6918367497862696 L -1.4265707627401365 1.847986476887712 C -1.4777847950277787 1.888840187980155 -1.5511855544741786 1.8860600530205929 -1.5991625284022188 1.8414493728431662 L -2.3461794015674218 1.0943943156590115 L -2.3461794015674218 1.096608988758215 C -2.346159655193093 1.4554768654105266 -2.143529167283338 1.783579756695884 -1.8226618594173813 1.9442979075870712 C -1.5017945515514246 2.1050160584782587 -1.117685041325632 2.0708033992063104 -0.8302738491816235 1.8559058424184562 Z" fill="#74d0ed" transform="matrix(1,0,0,1,0,0)" fill-rule="evenodd"></path></g><g clip-path="url(&quot;#SvgjsClipPath1000&quot;)"><path d=" M -1.4986392801097415 0.1538226504271944 L -0.9262684728262276 0.7261858209069182 C -0.9262684728262276 0.7261858209069182 -1.2013537821586995 1.0012864038469713 -1.7515320376274344 1.5514646593157062 L -2.337190883506171 0.9657752662218082 C -2.2770290128961426 0.5348159402879206 -1.9313409641127386 0.20007153137310535 -1.4986698273249037 0.15379974001582342 Z M -1.7083840962119137 0.9941154450878253 L -1.7283008804971665 1.0789985192176508 L -1.8131839546269917 1.0989153035029031 L -1.7283008804971665 1.118832087788156 L -1.7083840962119137 1.2037075251141907 L -1.6884749487304513 1.118832087788156 L -1.6035918746006264 1.0989153035029031 L -1.6884749487304513 1.0789985192176506 L -1.7083840962119137 0.9941154450878251 Z M -1.4046684094693906 0.636407555547474 L -1.4285945157445812 0.7384734382056037 L -1.5306756720102919 0.7624224548921652 L -1.4285945157445812 0.7863638347749364 L -1.4046531358618102 0.8884373542368565 L -1.3807117559790392 0.7863638347749364 L -1.2786305997133287 0.7624224548921652 L -1.3807117559790392 0.7384734382056037 L -1.4046531358618102 0.636407555547474 Z M -1.6620745180271852 0.28593171919659116 L -1.6779972539300807 0.35380763128528975 L -1.745865529214989 0.36973800399197576 L -1.6779972539300807 0.3856531030910811 L -1.6620745180271852 0.4535290151797797 L -1.6461517821242895 0.3856531030910811 L -1.5782835068393815 0.36973800399197576 L -1.6461517821242895 0.35380763128528975 L -1.6620745180271852 0.28593171919659116 Z M -1.9401534544454777 0.5237723364434892 L -1.9691733088488366 0.6476107467079285 L -2.0930193559170664 0.6766306011112875 L -1.9691733088488366 0.7056962763373886 L -1.9401534544454777 0.8295194129942471 L -1.9111336000421186 0.7056962763373886 L -1.7872799161700985 0.6766306011112875 L -1.9111336000421186 0.6476107467079285 Z" fill="#74d0ed" transform="matrix(1,0,0,1,0,0)" fill-rule="evenodd"></path></g><g clip-path="url(&quot;#SvgjsClipPath1000&quot;)"><path d=" M -1.5846067803777972 1.6884307352957706 L -0.7893176704537439 0.8931263517641361 C -0.7810255303199245 0.884885240610524 -0.7676353557104094 0.884885240610524 -0.75934321557659 0.8931263517641361 L -0.7293687606994363 0.9231008066412898 C -0.7046489717760929 0.9479667744158233 -0.7046489717760929 0.9881276562830561 -0.7293687606994363 1.0129936240575896 L -0.9207470636857986 1.2043413798287903 L -0.9089023810069543 1.2161936993114253 C -0.871557600899246 1.2537481953573253 -0.871557600899246 1.3144139378542936 -0.9089023810069543 1.3519684339001936 L -0.9528903708394141 1.3959640605364438 C -0.9503447695759615 1.4381446734718526 -0.9490719689442353 1.4592324343382934 -0.9490719689442353 1.4592273431357665 L -1.0185668834364896 1.5287222576280208 L -1.0818301660358123 1.524903855732842 L -1.125818155868272 1.5689071191728827 C -1.16337609769058 1.6062435464540705 -1.2240349486347326 1.6062435464540705 -1.2615928904570404 1.5689071191728827 L -1.2734452099396756 1.5570624364940382 L -1.464785328907086 1.7484025554614486 C -1.4896573520288197 1.773114883837105 -1.529813760005442 1.773114883837105 -1.554685783127176 1.7484025554614486 L -1.5846602380043298 1.7184281005842947 C -1.592891234536709 1.7101377470993595 -1.592891234536709 1.6967592727996572 -1.5846602380043298 1.688468919314722 Z M -1.6660456559981711 1.6035705715773163 C -1.6752145425560787 1.6128025690271088 -1.6752145425560787 1.627703769887596 -1.6660456559981711 1.636935767337389 L -1.6507720484174557 1.6522093749181042 C -1.6415400509676632 1.6613782614760115 -1.626638850107176 1.6613782614760115 -1.6174068526573833 1.6522093749181042 L -0.8255390308314099 0.8603110058769693 C -0.8163701442735025 0.8510790084271769 -0.8163701442735025 0.8361778075666896 -0.8255390308314099 0.8269458101168969 L -0.8408126384121253 0.8116722025361817 C -0.8500464208914611 0.8024931985813162 -0.8649593253004433 0.8024931985813162 -0.8741931077797787 0.8116722025361817 L -1.6660456559981711 1.6035705715773163 Z M -0.9845678329618173 1.5626602136723706 L -0.4036896262558445 2.1434544155366497 C -0.39821019809180047 2.1491527537121042 -0.3906374441964964 2.152360402478603 -0.3827321068506162 2.15233155088245 C -0.37482676950473603 2.152302699286297 -0.3672776305252099 2.1490398611297445 -0.3618399414846851 2.1433016794608424 C -0.34355234200804174 2.124973350363984 -0.33440854226972005 2.115829550625663 -0.33440854226972005 2.115870280245878 C -0.3283893250759755 2.110490175715433 -0.3249643425744617 2.1027884804595143 -0.3250008460736926 2.0947153665696616 C -0.3250373495729231 2.086642252679808 -0.32853183878150993 2.078971844599284 -0.334599462364479 2.0736463920889907 L -0.915080555273353 1.493180572787697 L -0.9845754697656075 1.5626754872799515 Z M -1.2153291330950537 1.4532553625717073 C -1.2303344413624657 1.4683379298916923 -1.2303014316467242 1.4927199048098605 -1.2152553391724294 1.5077617868203312 C -1.2002092466981351 1.522803668830802 -1.1758272634962446 1.5228298545949452 -1.1607488964053678 1.5078203256538125 L -0.9699051696843304 1.316976598932775 C -0.9548353623465315 1.3019046827498408 -0.9548370719032913 1.2774699879827836 -0.9699089880862259 1.2624001806449845 C -0.9849809042691602 1.2473303733071857 -1.0094155990362175 1.2473320828639454 -1.0244854063740163 1.2624039990468796 Z" fill="#aac527" transform="matrix(1,0,0,1,0,0)" fill-rule="evenodd"></path></g><g clip-path="url(&quot;#SvgjsClipPath1000&quot;)"><path d=" M -1.8639381526177083 -0.07741213154104432 L -1.8373773490348446 0.03582639506237864 L -1.7241388224314216 0.0623871986452425 L -1.8373773490348446 0.08894800222810634 L -1.8639381526177083 0.20218652883152932 L -1.8905065930043625 0.08894800222810634 L -2.003737482803995 0.0623871986452425 L -1.8905065930043625 0.03582639506237867 L -1.8639381526177083 -0.07741213154104432 Z M -2.364263352942989 0.39102941295949284 L -2.3429643071716812 0.4818233732230547 L -2.2521550733005387 0.5031376926019429 L -2.3429643071716812 0.52442910156946 L -2.364263352942989 0.6152459722443929 L -2.3855700355180867 0.5244367383732503 L -2.4763639957816483 0.5031376926019429 L -2.3855700355180867 0.4818233732230547 Z" fill="#74d0ed" transform="matrix(1,0,0,1,0,0)" fill-rule="evenodd"></path></g></g></g><defs><clipPath id="SvgjsClipPath1002"><path d=" M -2.4763639957816483 -0.07741213154104432 h 2.151363995781648 v 2.229740513082089 h -2.151363995781648 Z"></path></clipPath><clipPath id="SvgjsClipPath1000"><path d=" M -2.4763639957816483 -0.07741213154104432 L -0.3250000000000002 -0.07741213154104432 L -0.3250000000000002 2.1523283815410448 L -2.4763639957816483 2.1523283815410448 Z"></path></clipPath></defs></svg>